<?xml version="1.0" encoding="UTF-8" standalone="no"?>
<svg
   xmlns:dc="http://purl.org/dc/elements/1.1/"
   xmlns:cc="http://creativecommons.org/ns#"
   xmlns:rdf="http://www.w3.org/1999/02/22-rdf-syntax-ns#"
   xmlns:svg="http://www.w3.org/2000/svg"
   xmlns="http://www.w3.org/2000/svg"
   xmlns:sodipodi="http://sodipodi.sourceforge.net/DTD/sodipodi-0.dtd"
   xmlns:inkscape="http://www.inkscape.org/namespaces/inkscape"
   sodipodi:docname="Pixel C wordmark.svg"
   inkscape:version="1.0 (4035a4f, 2020-05-01)"
   id="svg8"
   version="1.1"
   viewBox="0 0 142.37415 37.998398"
   height="37.998398mm"
   width="142.37415mm">
  <defs
     id="defs2" />
  <sodipodi:namedview
     inkscape:window-maximized="0"
     inkscape:window-y="25"
     inkscape:window-x="0"
     inkscape:window-height="790"
     inkscape:window-width="1398"
     fit-margin-bottom="0"
     fit-margin-right="0"
     fit-margin-left="0"
     fit-margin-top="0"
     showgrid="false"
     inkscape:document-rotation="0"
     inkscape:current-layer="layer1"
     inkscape:document-units="mm"
     inkscape:cy="592.9028"
     inkscape:cx="472.88696"
     inkscape:zoom="0.33444444"
     inkscape:pageshadow="2"
     inkscape:pageopacity="0.0"
     borderopacity="1.0"
     bordercolor="#666666"
     pagecolor="#ffffff"
     id="base" />
  <metadata
     id="metadata5">
    <rdf:RDF>
      <cc:Work
         rdf:about="">
        <dc:format>image/svg+xml</dc:format>
        <dc:type
           rdf:resource="http://purl.org/dc/dcmitype/StillImage" />
        <dc:title></dc:title>
      </cc:Work>
    </rdf:RDF>
  </metadata>
  <g
     transform="translate(19.284674,8.7055331)"
     id="layer1"
     inkscape:groupmode="layer"
     inkscape:label="Livello 1">
    <g
       style="font-size:50.8px;line-height:1.25;font-family:'.SF NS Mono';-inkscape-font-specification:'.SF NS Mono';stroke-width:0.264583"
       id="text835"
       aria-label="Pixel C">
      <path
         id="path837"
         style="font-style:normal;font-variant:normal;font-weight:normal;font-stretch:normal;font-family:'Product Sans';-inkscape-font-specification:'Product Sans';fill:#888888;fill-opacity:1;stroke-width:0.264583"
         d="m -14.611074,13.748067 v 14.731999 h -4.6736 V -7.8927332 h 12.3951997 q 4.7243999,0 8.0263998,3.1496 3.3528,3.1496 3.3528,7.6707999 0,4.6227999 -3.3528,7.7216003 -3.2511999,3.0988 -8.0263998,3.0988 z m 0,-17.1704002 V 9.2776666 h 7.8231997 q 2.7939999,0 4.6227999,-1.8796 1.87959997,-1.8796 1.87959997,-4.4703999 0,-2.53999998 -1.87959997,-4.4196 -1.8288,-1.9303999 -4.6227999,-1.9303999 z" />
      <path
         id="path839"
         style="font-style:normal;font-variant:normal;font-weight:normal;font-stretch:normal;font-family:'Product Sans';-inkscape-font-specification:'Product Sans';fill:#888888;fill-opacity:1;stroke-width:0.264583"
         d="m 14.621945,-4.9971332 q 0,1.3716 -0.9652,2.3368 -0.9652,0.9652 -2.3368,0.9652 -1.3716,0 -2.3368,-0.9652 -0.9652,-0.9652 -0.9652,-2.3368 0,-1.3716 0.9652,-2.3368 0.9652,-0.9651999 2.3368,-0.9651999 1.3716,0 2.3368,0.9651999 0.9652,0.9652 0.9652,2.3368 z m -0.9652,8.5851999 V 28.480066 h -4.6736 V 3.5880667 Z" />
      <path
         id="path841"
         style="font-style:normal;font-variant:normal;font-weight:normal;font-stretch:normal;font-family:'Product Sans';-inkscape-font-specification:'Product Sans';fill:#888888;fill-opacity:1;stroke-width:0.264583"
         d="m 31.624862,15.830866 8.89,12.6492 h -5.4864 l -6.1468,-9.1948 -6.045199,9.1948 h -5.4864 l 8.7884,-12.6492 -8.5852,-12.2427993 h 5.2832 l 6.146799,8.7884003 5.842,-8.7884003 h 5.4864 z" />
      <path
         id="path843"
         style="font-style:normal;font-variant:normal;font-weight:normal;font-stretch:normal;font-family:'Product Sans';-inkscape-font-specification:'Product Sans';fill:#888888;fill-opacity:1;stroke-width:0.264583"
         d="m 54.181652,29.292866 q -5.4864,0 -9.0424,-3.7592 -3.556,-3.7592 -3.556,-9.4996 0,-5.689599 3.4544,-9.4487994 3.4544,-3.8099999 8.8392,-3.8099999 5.5372,0 8.7884,3.6067999 3.302,3.556 3.302,10.0075994 l -0.0508,0.508 h -19.558 q 0.1016,3.6576 2.4384,5.8928 2.3368,2.2352 5.588,2.2352 4.4704,0 7.0104,-4.4704 l 4.1656,2.032 q -1.6764,3.1496 -4.6736,4.9276 -2.9464,1.778 -6.7056,1.778 z m -7.4676,-16.255999 h 14.2748 q -0.2032,-2.5908 -2.1336,-4.2672004 -1.8796,-1.7272 -5.08,-1.7272 -2.6416,0 -4.572,1.6256 -1.8796,1.6256004 -2.4892,4.3688004 z" />
      <path
         id="path845"
         style="font-style:normal;font-variant:normal;font-weight:normal;font-stretch:normal;font-family:'Product Sans';-inkscape-font-specification:'Product Sans';fill:#888888;fill-opacity:1;stroke-width:0.264583"
         d="M 74.865188,-7.8927332 V 28.480066 h -4.6736 V -7.8927332 Z" />
      <path
         id="path847"
         style="font-style:normal;font-variant:normal;font-weight:normal;font-stretch:normal;font-family:'Product Sans';-inkscape-font-specification:'Product Sans';fill:#888888;fill-opacity:1;stroke-width:0.264583"
         d="m 108.66227,29.292866 q -8.0772,0 -13.512797,-5.4356 -5.3848,-5.4356 -5.3848,-13.563599 0,-8.1280003 5.3848,-13.5128002 5.384797,-5.4863999 13.512797,-5.4863999 8.2296,0 13.3604,5.9435999 l -3.3528,3.25119992 q -3.9116,-4.72439992 -10.0076,-4.72439992 -6.0452,0 -10.109197,4.06399993 -4.0132,4.01319997 -4.0132,10.46480027 0,6.451599 4.0132,10.464799 4.063997,4.064 10.109197,4.064 6.35,0 11.0236,-5.334 l 3.4036,3.302 q -2.5908,3.0988 -6.35,4.826 -3.7592,1.6764 -8.0772,1.6764 z" />
    </g>
  </g>
</svg>
